<?xml version="1.0" encoding="UTF-8"?>
<svg width="60px" height="72px" viewBox="0 0 60 72" version="1.1" xmlns="http://www.w3.org/2000/svg" xmlns:xlink="http://www.w3.org/1999/xlink">
    <!-- Generator: Sketch 47.1 (45422) - http://www.bohemiancoding.com/sketch -->
    <title>Bag</title>
    <desc>Created with Sketch.</desc>
    <defs></defs>
    <g id="Page-1" stroke="none" stroke-width="1" fill="none" fill-rule="evenodd">
        <g id="noun_1226687_cc" transform="translate(-1.000000, 0.000000)" fill-rule="nonzero" fill="#000000">
            <path d="M58,16.51 L49.49,16.51 C48.3667585,7.47251695 40.6969932,0.681132565 31.59,0.66 L30.41,0.66 C21.3030068,0.681132565 13.6332415,7.47251695 12.51,16.51 L4,16.51 C2.34314575,16.51 1,17.8531458 1,19.51 C0.994190707,19.6165876 0.994190707,19.7234124 1,19.83 L1,19.83 C1,19.83 3.57,43.57 5.12,57.95 C5.94090637,65.5541902 12.3516468,71.3229949 20,71.34 L42,71.34 C49.6483532,71.3229949 56.0590936,65.5541902 56.88,57.95 L61,19.83 L61,19.83 C61.0058093,19.7234124 61.0058093,19.6165876 61,19.51 C61,17.8531458 59.6568542,16.51 58,16.51 Z M30.4,6.67 L31.57,6.67 C37.371505,6.67586883 42.3481419,10.8083673 43.42,16.51 L18.57,16.51 C19.6369261,10.8080885 24.6091387,6.67157721 30.41,6.66 L30.4,6.67 Z M50.91,57.3 C50.4004697,61.8573857 46.5457799,65.3029185 41.96,65.3 L20,65.3 C15.4142201,65.3029185 11.5595303,61.8573857 11.05,57.3 C9.85,46.2 8.05,29.53 7.29,22.5 L54.67,22.5 L50.91,57.3 Z" id="Bag"></path>
        </g>
    </g>
</svg>